<svg width="77" height="77" viewBox="0 0 77 77" fill="none" xmlns="http://www.w3.org/2000/svg">
<path d="M50.7879 35.6095H42.4307C42.3196 35.602 42.2149 35.5544 42.1361 35.4756C42.0573 35.3968 42.0097 35.2921 42.0022 35.1809V27.0381C42.0336 26.626 41.9792 26.212 41.8424 25.822C41.7056 25.4321 41.4894 25.0748 41.2075 24.7727C40.9255 24.4706 40.5839 24.2303 40.2043 24.0669C39.8247 23.9036 39.4154 23.8208 39.0022 23.8238C38.5779 23.8159 38.1564 23.8937 37.7629 24.0525C37.3694 24.2112 37.0119 24.4477 36.7118 24.7477C36.4118 25.0478 36.1753 25.4053 36.0166 25.7988C35.8578 26.1923 35.78 26.6138 35.7879 27.0381V35.3952C35.7804 35.5064 35.7328 35.6111 35.654 35.6899C35.5752 35.7687 35.4705 35.8163 35.3593 35.8238H27.2165C26.8007 35.7739 26.3791 35.8155 25.9811 35.9456C25.583 36.0756 25.2182 36.291 24.9121 36.5768C24.606 36.8625 24.3659 37.2116 24.2088 37.5997C24.0516 37.9878 23.9811 38.4056 24.0022 38.8238C24.0228 39.6698 24.3681 40.4754 24.9665 41.0738C25.5649 41.6721 26.3705 42.0174 27.2165 42.0381H35.5736C35.6848 42.0456 35.7895 42.0932 35.8683 42.172C35.9471 42.2508 35.9947 42.3554 36.0022 42.4666V50.8238C35.9919 51.2206 36.0624 51.6153 36.2095 51.9839C36.3566 52.3526 36.5772 52.6874 36.8579 52.9681C37.1386 53.2487 37.4734 53.4693 37.842 53.6164C38.2107 53.7635 38.6054 53.8341 39.0022 53.8238C39.8482 53.8031 40.6538 53.4578 41.2522 52.8595C41.8505 52.2611 42.1958 51.4555 42.2165 50.6095V42.2524C42.224 42.1412 42.2716 42.0365 42.3504 41.9577C42.4292 41.8789 42.5338 41.8313 42.645 41.8238H51.0022C51.7927 41.8074 52.5462 41.486 53.1053 40.9269C53.6644 40.3678 53.9858 39.6143 54.0022 38.8238C54.0371 38.3928 53.978 37.9594 53.8288 37.5535C53.6796 37.1477 53.444 36.7791 53.1383 36.4734C52.8325 36.1676 52.464 35.932 52.0581 35.7829C51.6523 35.6337 51.2189 35.5745 50.7879 35.6095Z" fill="#297EFF"/>
</svg>
