<svg width="77" height="77" viewBox="0 0 77 77" fill="none" xmlns="http://www.w3.org/2000/svg">
<path d="M50.0604 35.0011H41.7032C41.592 34.9936 41.4873 34.946 41.4085 34.8672C41.3297 34.7884 41.2822 34.6837 41.2746 34.5725V26.4297C41.3061 26.0176 41.2517 25.6036 41.1149 25.2136C40.9781 24.8237 40.7619 24.4664 40.4799 24.1643C40.198 23.8622 39.8564 23.6219 39.4768 23.4585C39.0972 23.2952 38.6879 23.2124 38.2746 23.2154C37.8504 23.2075 37.4289 23.2853 37.0354 23.4441C36.6418 23.6028 36.2844 23.8393 35.9843 24.1393C35.6843 24.4394 35.4478 24.7969 35.289 25.1904C35.1303 25.5839 35.0525 26.0054 35.0604 26.4297V34.7868C35.0528 34.898 35.0053 35.0027 34.9265 35.0815C34.8477 35.1603 34.743 35.2079 34.6318 35.2154H26.4889C26.0732 35.1656 25.6515 35.2071 25.2535 35.3372C24.8555 35.4672 24.4907 35.6826 24.1846 35.9684C23.8784 36.2541 23.6384 36.6032 23.4812 36.9913C23.3241 37.3794 23.2536 37.7972 23.2746 38.2154C23.2953 39.0614 23.6406 39.867 24.239 40.4654C24.8373 41.0637 25.6429 41.409 26.4889 41.4297H34.8461C34.9573 41.4372 35.0619 41.4848 35.1407 41.5636C35.2195 41.6424 35.2671 41.747 35.2746 41.8582V50.2154C35.2643 50.6122 35.3349 51.0069 35.482 51.3755C35.6291 51.7442 35.8497 52.079 36.1304 52.3597C36.411 52.6403 36.7459 52.8609 37.1145 53.008C37.4831 53.1551 37.8779 53.2257 38.2746 53.2154C39.1206 53.1947 39.9262 52.8494 40.5246 52.2511C41.123 51.6527 41.4683 50.8471 41.4889 50.0011V41.644C41.4964 41.5328 41.544 41.4281 41.6228 41.3493C41.7016 41.2705 41.8063 41.2229 41.9175 41.2154H50.2746C51.0651 41.199 51.8187 40.8776 52.3778 40.3185C52.9369 39.7594 53.2582 39.0059 53.2746 38.2154C53.3096 37.7844 53.2504 37.351 53.1013 36.9451C52.9521 36.5393 52.7165 36.1707 52.4107 35.865C52.105 35.5592 51.7364 35.3236 51.3306 35.1745C50.9247 35.0253 50.4913 34.9661 50.0604 35.0011Z" fill="white"/>
</svg>
