<svg width="30" height="30" viewBox="0 0 30 30" fill="none" xmlns="http://www.w3.org/2000/svg">
<g clip-path="url(#clip0_524_2220)">
<path d="M28.602 10H24.602" stroke="#8E90A6" stroke-width="2" stroke-linecap="round" stroke-linejoin="round"/>
<path d="M26.602 8V12" stroke="#8E90A6" stroke-width="2" stroke-linecap="round" stroke-linejoin="round"/>
<path d="M23.602 4H17.602" stroke="#8E90A6" stroke-width="2" stroke-linecap="round" stroke-linejoin="round"/>
<path d="M20.602 1V7" stroke="#8E90A6" stroke-width="2" stroke-linecap="round" stroke-linejoin="round"/>
<path d="M15.9395 20.938L13.5395 27.4505C13.4685 27.6418 13.3406 27.8069 13.173 27.9234C13.0054 28.04 12.8061 28.1025 12.602 28.1025C12.3979 28.1025 12.1986 28.04 12.031 27.9234C11.8635 27.8069 11.7356 27.6418 11.6645 27.4505L9.26451 20.938C9.21387 20.8005 9.13399 20.6757 9.0304 20.5721C8.92681 20.4685 8.80198 20.3886 8.66451 20.338L2.15201 17.938C1.96064 17.8669 1.79558 17.739 1.67903 17.5714C1.56247 17.4038 1.5 17.2046 1.5 17.0005C1.5 16.7963 1.56247 16.5971 1.67903 16.4295C1.79558 16.2619 1.96064 16.134 2.15201 16.063L8.66451 13.663C8.80198 13.6123 8.92681 13.5324 9.0304 13.4288C9.13399 13.3252 9.21387 13.2004 9.26451 13.063L11.6645 6.55045C11.7356 6.35908 11.8635 6.19402 12.031 6.07747C12.1986 5.96091 12.3979 5.89844 12.602 5.89844C12.8061 5.89844 13.0054 5.96091 13.173 6.07747C13.3406 6.19402 13.4685 6.35908 13.5395 6.55045L15.9395 13.063C15.9902 13.2004 16.07 13.3252 16.1736 13.4288C16.2772 13.5324 16.4021 13.6123 16.5395 13.663L23.052 16.063C23.2434 16.134 23.4084 16.2619 23.525 16.4295C23.6416 16.5971 23.704 16.7963 23.704 17.0005C23.704 17.2046 23.6416 17.4038 23.525 17.5714C23.4084 17.739 23.2434 17.8669 23.052 17.938L16.5395 20.338C16.4021 20.3886 16.2772 20.4685 16.1736 20.5721C16.07 20.6757 15.9902 20.8005 15.9395 20.938V20.938Z" stroke="#8E90A6" stroke-width="2" stroke-linecap="round" stroke-linejoin="round"/>
</g>
<defs>
<clipPath id="clip0_524_2220">
<rect width="30" height="30" fill="white"/>
</clipPath>
</defs>
</svg>
