<svg width="56" height="56" viewBox="0 0 56 56" fill="none" xmlns="http://www.w3.org/2000/svg">
<g clip-path="url(#clip0_429_6559)">
<path fill-rule="evenodd" clip-rule="evenodd" d="M12.4366 5.93444C12.4232 7.45125 13.0395 8.91627 14.1612 10.0339L32.4936 27.7483L14.1828 45.4627C13.0596 46.577 12.436 48.0369 12.436 49.5522C12.436 51.0676 13.0596 52.5275 14.1828 53.6418C14.72 54.1777 15.3732 54.6056 16.101 54.8984C16.8287 55.1911 17.6151 55.3423 18.4102 55.3423C19.2053 55.3423 19.9917 55.1911 20.7194 54.8984C21.4472 54.6056 22.1004 54.1777 22.6376 53.6418L45.1737 31.8359C46.3016 30.7261 46.9285 29.2672 46.9285 27.7522C46.9285 26.2372 46.3016 24.7784 45.1737 23.6685L22.6376 1.8547C22.1004 1.31881 21.4472 0.890918 20.7194 0.59819C19.9917 0.305461 19.2053 0.154297 18.4102 0.154297C17.6151 0.154297 16.8287 0.305461 16.101 0.59819C15.3732 0.890918 14.72 1.31881 14.1828 1.8547C13.0546 2.9622 12.4302 4.42103 12.4366 5.93444Z" fill="#EDF4FF"/>
</g>
<defs>
<clipPath id="clip0_429_6559">
<rect width="55.1818" height="55.1818" fill="white" transform="translate(0.36377 0.154297)"/>
</clipPath>
</defs>
</svg>
