<svg width="46" height="47" viewBox="0 0 46 47" fill="none" xmlns="http://www.w3.org/2000/svg">
<rect width="46" height="46" rx="23" transform="matrix(-1 0 0 1 46 0.5)" fill="#5598FF"/>
<g clip-path="url(#clip0_429_6616)">
<path fill-rule="evenodd" clip-rule="evenodd" d="M29.0369 15.0152C29.0421 15.6052 28.8023 16.1752 28.366 16.6099L21.2344 23.5011L28.3576 30.3923C28.7945 30.8258 29.0371 31.3937 29.0371 31.9832C29.0371 32.5727 28.7945 33.1407 28.3576 33.5742C28.1486 33.7826 27.8945 33.9491 27.6114 34.063C27.3283 34.1769 27.0224 34.2357 26.7131 34.2357C26.4038 34.2357 26.0978 34.1769 25.8147 34.063C25.5316 33.9491 25.2775 33.7826 25.0685 33.5742L16.3016 25.0913C15.8628 24.6595 15.6189 24.092 15.6189 23.5027C15.6189 22.9133 15.8628 22.3458 16.3016 21.914L25.0685 13.4281C25.2775 13.2196 25.5316 13.0532 25.8147 12.9393C26.0978 12.8254 26.4038 12.7666 26.7131 12.7666C27.0224 12.7666 27.3283 12.8254 27.6114 12.9393C27.8945 13.0532 28.1486 13.2196 28.3576 13.4281C28.7965 13.8589 29.0394 14.4264 29.0369 15.0152Z" fill="white"/>
</g>
<defs>
<clipPath id="clip0_429_6616">
<rect width="21.4667" height="21.4667" fill="white" transform="matrix(-1 0 0 1 33.7334 12.7666)"/>
</clipPath>
</defs>
</svg>
