<svg width="24" height="24" viewBox="0 0 24 24" fill="none" xmlns="http://www.w3.org/2000/svg">
<circle cx="12" cy="12" r="12" fill="#E53535"/>
<path fill-rule="evenodd" clip-rule="evenodd" d="M15.2825 5.6673L11.5012 9.44555L7.71999 5.66431C7.52077 5.45684 7.28215 5.29123 7.0181 5.17717C6.75405 5.06312 6.46989 5.00292 6.18227 5.0001C5.89466 4.99729 5.60938 5.05192 5.34315 5.16079C5.07692 5.26965 4.8351 5.43057 4.63186 5.6341C4.42863 5.83764 4.26806 6.07969 4.15959 6.34608C4.05111 6.61247 3.9969 6.89783 4.00014 7.18544C4.00337 7.47306 4.06399 7.75713 4.17843 8.02101C4.29287 8.28489 4.45884 8.52327 4.6666 8.72218L8.44634 12.5034L4.66959 16.2802C4.27474 16.6881 4.05602 17.2349 4.06058 17.8027C4.06515 18.3704 4.29264 18.9136 4.694 19.3151C5.09536 19.7167 5.63845 19.9445 6.20618 19.9493C6.77391 19.9541 7.3208 19.7357 7.72896 19.341L11.5012 15.5568L15.2795 19.3365C15.4788 19.5436 15.7175 19.7089 15.9815 19.8226C16.2454 19.9364 16.5295 19.9964 16.8169 19.9991C17.1043 20.0018 17.3894 19.9472 17.6555 19.8385C17.9216 19.7297 18.1633 19.569 18.3666 19.3658C18.5698 19.1625 18.7305 18.9208 18.8393 18.6547C18.948 18.3886 19.0026 18.1035 18.9999 17.8161C18.9972 17.5287 18.9372 17.2447 18.8234 16.9807C18.7097 16.7167 18.5444 16.478 18.3373 16.2787L14.5651 12.5049L18.3418 8.72816C18.7367 8.3202 18.9554 7.77341 18.9508 7.20568C18.9463 6.63795 18.7188 6.09475 18.3174 5.69319C17.9161 5.29163 17.373 5.06388 16.8052 5.05904C16.2375 5.0542 15.6906 5.27265 15.2825 5.6673Z" fill="#F7F5FF"/>
</svg>
