<svg width="11" height="11" viewBox="0 0 11 11" fill="none" xmlns="http://www.w3.org/2000/svg">
<path d="M7.8019 6.92921L6.4108 5.53584C6.39355 5.51605 6.38405 5.49068 6.38408 5.46441C6.38411 5.43815 6.39365 5.41279 6.41095 5.39302L7.76913 4.03706C7.84309 3.97368 7.9031 3.89566 7.94537 3.80792C7.98763 3.72018 8.01124 3.62463 8.0147 3.52731C8.01815 3.43 8.00138 3.33303 7.96544 3.24254C7.92949 3.15206 7.87516 3.07002 7.80588 3.00162C7.73657 2.92958 7.65344 2.87225 7.56146 2.83308C7.46947 2.7939 7.37053 2.77368 7.27053 2.77362C7.17054 2.77356 7.07155 2.79366 6.97949 2.83272C6.88743 2.87178 6.80418 2.929 6.73472 3.00096L5.3408 4.39261C5.321 4.40987 5.29562 4.41937 5.26936 4.41935C5.2431 4.41934 5.21774 4.4098 5.19798 4.39252L3.84255 3.03487C3.78165 2.95726 3.70454 2.89388 3.61659 2.84918C3.52865 2.80447 3.43199 2.77952 3.33338 2.77606C3.23477 2.7726 3.13659 2.79071 3.04569 2.82914C2.95479 2.86756 2.87337 2.92537 2.80713 2.99853C2.66946 3.14285 2.59256 3.33457 2.59236 3.53398C2.59216 3.73339 2.66867 3.9252 2.80604 4.06969L4.19714 5.46306C4.21439 5.48285 4.22388 5.50823 4.22386 5.53449C4.22383 5.56075 4.21429 5.58611 4.19699 5.60588L2.80307 6.99753C2.73517 7.06188 2.68108 7.13938 2.64408 7.22529C2.60708 7.31121 2.58795 7.40375 2.58786 7.49727C2.58776 7.5908 2.6067 7.68337 2.64353 7.76933C2.68035 7.85529 2.73429 7.93285 2.80206 7.99728C2.94632 8.13489 3.13801 8.21172 3.33742 8.21184C3.53683 8.21196 3.72867 8.13538 3.87322 7.99795L5.26714 6.6063C5.28694 6.58904 5.31232 6.57953 5.33858 6.57955C5.36484 6.57957 5.3902 6.5891 5.40996 6.60638L6.80106 7.99976C6.93538 8.12882 7.11442 8.20095 7.30073 8.20107C7.48705 8.20118 7.66623 8.12927 7.80081 8.00038C7.87852 7.93444 7.94096 7.8524 7.98382 7.75995C8.02669 7.6675 8.04894 7.56684 8.04904 7.46495C8.04915 7.36306 8.0271 7.26237 7.98442 7.16987C7.94175 7.07736 7.87947 6.99525 7.8019 6.92921Z" fill="#0063F7"/>
</svg>
