<svg width="35" height="35" viewBox="0 0 35 35" fill="none" xmlns="http://www.w3.org/2000/svg">
<circle cx="17.5" cy="17.5" r="17.5" fill="#0063F7"/>
<path fill-rule="evenodd" clip-rule="evenodd" d="M22.2869 8.26416L16.7726 13.7741L11.2583 8.2598C10.9678 7.95724 10.6198 7.71572 10.2347 7.54939C9.84965 7.38306 9.43525 7.29527 9.01581 7.29117C8.59637 7.28706 8.18033 7.36673 7.79208 7.52549C7.40383 7.68426 7.05118 7.91893 6.75479 8.21575C6.45841 8.51257 6.22425 8.86557 6.06606 9.25405C5.90786 9.64254 5.82881 10.0587 5.83353 10.4781C5.83825 10.8976 5.92664 11.3118 6.09354 11.6967C6.26043 12.0815 6.50247 12.4291 6.80546 12.7192L12.3176 18.2335L6.80981 23.7413C6.23399 24.3362 5.91502 25.1336 5.92168 25.9616C5.92834 26.7895 6.26009 27.5817 6.84541 28.1673C7.43073 28.7529 8.22273 29.085 9.05067 29.0921C9.87861 29.0991 10.6762 28.7806 11.2714 28.205L16.7726 22.6864L22.2826 28.1985C22.5733 28.5005 22.9213 28.7414 23.3063 28.9073C23.6913 29.0732 24.1055 29.1607 24.5246 29.1647C24.9438 29.1687 25.3596 29.089 25.7476 28.9305C26.1356 28.7719 26.4882 28.5375 26.7846 28.2411C27.081 27.9447 27.3154 27.5922 27.4739 27.2041C27.6325 26.8161 27.7122 26.4003 27.7082 25.9812C27.7042 25.562 27.6167 25.1478 27.4508 24.7628C27.2849 24.3779 27.0439 24.0298 26.742 23.7391L21.2407 18.2357L26.7485 12.7279C27.3243 12.133 27.6433 11.3356 27.6366 10.5076C27.63 9.67969 27.2982 8.88752 26.7129 8.30192C26.1276 7.71631 25.3356 7.38418 24.5076 7.37711C23.6797 7.37005 22.8821 7.68863 22.2869 8.26416V8.26416Z" fill="#F7F5FF"/>
</svg>
