<svg width="10" height="10" viewBox="0 0 10 10" fill="none" xmlns="http://www.w3.org/2000/svg">
<g clip-path="url(#clip0_557_1915)">
<path fill-rule="evenodd" clip-rule="evenodd" d="M8.95253 2.18761C8.67765 2.18517 8.41216 2.29686 8.20963 2.50014L4.99944 5.82232L1.78926 2.50405C1.58732 2.3005 1.32276 2.1875 1.04815 2.1875C0.773536 2.1875 0.508974 2.3005 0.307033 2.50405C0.20992 2.6014 0.132377 2.71977 0.0793285 2.85166C0.0262804 2.98354 -0.00111294 3.12605 -0.00111294 3.27013C-0.00111294 3.41422 0.0262804 3.55672 0.0793285 3.68861C0.132377 3.82049 0.20992 3.93887 0.307033 4.03622L4.25869 8.12019C4.45981 8.32459 4.72419 8.4382 4.99873 8.4382C5.27327 8.4382 5.53765 8.32459 5.73877 8.12019L9.69185 4.03622C9.78897 3.93887 9.86651 3.82049 9.91956 3.68861C9.97261 3.55672 10 3.41422 10 3.27013C10 3.12605 9.97261 2.98354 9.91956 2.85166C9.86651 2.71977 9.78897 2.6014 9.69185 2.50405C9.49115 2.29959 9.22679 2.18644 8.95253 2.18761Z" fill="#8E90A6"/>
</g>
<defs>
<clipPath id="clip0_557_1915">
<rect width="10" height="10" fill="white" transform="matrix(0 1 -1 0 10 0)"/>
</clipPath>
</defs>
</svg>
