<svg width="30" height="30" viewBox="0 0 30 30" fill="none" xmlns="http://www.w3.org/2000/svg">
<g clip-path="url(#clip0_429_6807)">
<path fill-rule="evenodd" clip-rule="evenodd" d="M26.5717 12.3757C26.2847 9.77869 25.062 7.37504 23.132 5.61385C21.202 3.85266 18.6968 2.85442 16.0845 2.80566C14.0888 2.82776 12.1402 3.41473 10.4643 4.4986C8.78847 5.58247 7.45392 7.1189 6.61523 8.92995C4.50328 9.57257 2.68728 10.9426 1.48944 12.7969C0.291608 14.6512 -0.210598 16.8699 0.0719375 19.0593C0.354473 21.2487 1.40348 23.2672 3.03282 24.7567C4.66216 26.2461 6.76648 27.1102 8.97237 27.1957H22.0974C23.1537 27.1781 24.1962 26.9525 25.1652 26.5316C26.1343 26.1108 27.0109 25.5031 27.7449 24.7433C28.4789 23.9834 29.0558 23.0863 29.4428 22.1033C29.8298 21.1202 30.0192 20.0705 30.0002 19.0142C29.9955 17.7152 29.6822 16.4359 29.0861 15.2817C28.49 14.1275 27.6282 13.1315 26.5717 12.3757ZM9.27023 14.8057L14.3574 9.71638C14.4418 9.63189 14.542 9.56486 14.6523 9.51913C14.7626 9.4734 14.8808 9.44986 15.0002 9.44986C15.1196 9.44986 15.2379 9.4734 15.3482 9.51913C15.4585 9.56486 15.5587 9.63189 15.6431 9.71638L20.7302 14.8057C20.8568 14.9333 20.9429 15.0955 20.9777 15.2719C21.0125 15.4483 20.9945 15.631 20.9258 15.7972C20.8571 15.9633 20.7409 16.1055 20.5918 16.2059C20.4426 16.3063 20.2672 16.3603 20.0874 16.3614H16.8217V20.6814C16.8217 21.1645 16.6298 21.6277 16.2882 21.9693C15.9466 22.3109 15.4833 22.5028 15.0002 22.5028C14.5172 22.5028 14.0539 22.3109 13.7123 21.9693C13.3707 21.6277 13.1788 21.1645 13.1788 20.6814V16.3614H9.91523C9.73526 16.3608 9.55949 16.307 9.41001 16.2068C9.26053 16.1065 9.144 15.9644 9.07508 15.7981C9.00615 15.6319 8.9879 15.449 9.02262 15.2724C9.05735 15.0958 9.14349 14.9334 9.27023 14.8057Z" fill="#6AA5FF"/>
</g>
<defs>
<clipPath id="clip0_429_6807">
<rect width="30" height="30" fill="white"/>
</clipPath>
</defs>
</svg>
