<svg width="15" height="15" viewBox="0 0 15 15" fill="none" xmlns="http://www.w3.org/2000/svg">
<path d="M15 7.5C15 11.6421 11.6421 15 7.5 15C3.35786 15 0 11.6421 0 7.5C0 3.35786 3.35786 0 7.5 0C11.6421 0 15 3.35786 15 7.5Z" fill="#0063F7"/>
<path d="M10.8472 9.68305L9.07661 7.90958C9.05465 7.88439 9.04257 7.85209 9.0426 7.81867C9.04264 7.78524 9.05478 7.75296 9.0768 7.7278L10.8055 6.00193C10.8996 5.92127 10.976 5.82197 11.0298 5.71029C11.0836 5.59862 11.1136 5.477 11.118 5.35314C11.1224 5.22928 11.1011 5.10586 11.0553 4.99069C11.0096 4.87552 10.9404 4.7711 10.8523 4.68404C10.764 4.59235 10.6582 4.51938 10.5412 4.46952C10.4241 4.41966 10.2981 4.39392 10.1709 4.39384C10.0436 4.39376 9.91761 4.41935 9.80044 4.46906C9.68326 4.51878 9.5773 4.59161 9.4889 4.6832L7.71472 6.45448C7.68952 6.47645 7.65722 6.48854 7.6238 6.48852C7.59037 6.4885 7.55809 6.47637 7.53294 6.45437L5.80776 4.72637C5.73026 4.62758 5.6321 4.54691 5.52017 4.49002C5.40823 4.43312 5.28521 4.40135 5.1597 4.39695C5.03419 4.39254 4.90922 4.4156 4.79352 4.46451C4.67783 4.51342 4.5742 4.587 4.48989 4.68011C4.31467 4.86379 4.21679 5.10781 4.21653 5.36162C4.21627 5.61543 4.31366 5.85957 4.4885 6.04347L6.25908 7.81694C6.28104 7.84213 6.29312 7.87443 6.29309 7.90786C6.29306 7.94128 6.28091 7.97356 6.2589 7.99873L4.48472 9.77001C4.3983 9.85191 4.32945 9.95055 4.28236 10.0599C4.23527 10.1692 4.21092 10.287 4.2108 10.4061C4.21068 10.5251 4.23479 10.6429 4.28166 10.7523C4.32853 10.8617 4.39718 10.9605 4.48343 11.0425C4.66705 11.2176 4.91103 11.3154 5.16484 11.3156C5.41864 11.3157 5.66282 11.2182 5.8468 11.0433L7.62097 9.27204C7.64617 9.25007 7.67847 9.23798 7.7119 9.238C7.74532 9.23802 7.7776 9.25016 7.80275 9.27216L9.57333 11.0456C9.7443 11.2099 9.97217 11.3017 10.2093 11.3019C10.4465 11.302 10.6745 11.2105 10.8458 11.0464C10.9447 10.9625 11.0242 10.8581 11.0787 10.7404C11.1333 10.6227 11.1616 10.4946 11.1618 10.3649C11.1619 10.2352 11.1338 10.1071 11.0795 9.98935C11.0252 9.87161 10.9459 9.7671 10.8472 9.68305Z" fill="white"/>
</svg>
