<svg width="30" height="30" viewBox="0 0 30 30" fill="none" xmlns="http://www.w3.org/2000/svg">
<g clip-path="url(#clip0_429_6810)">
<path d="M28.8516 11.1193H26.7494C26.4442 11.1193 26.1516 10.9981 25.9358 10.7823C25.72 10.5664 25.5987 10.2738 25.5987 9.96857V4.815C25.5987 4.70929 25.5567 4.60791 25.482 4.53317C25.4072 4.45842 25.3059 4.41643 25.2001 4.41643H20.0294C19.7248 4.41643 19.4327 4.29542 19.2173 4.08002C19.0019 3.86462 18.8809 3.57248 18.8809 3.26786V1.15071C18.8806 0.999702 18.9101 0.850116 18.9677 0.710517C19.0253 0.570919 19.1098 0.444048 19.2165 0.337166C19.3232 0.230284 19.4499 0.145489 19.5894 0.0876344C19.7289 0.0297793 19.8784 -2.62816e-07 20.0294 0L29.143 0C29.3703 0 29.5884 0.0903059 29.7491 0.251051C29.9098 0.411797 30.0001 0.629815 30.0001 0.857143V9.96857C30.0004 10.1196 29.9709 10.2692 29.9133 10.4088C29.8557 10.5484 29.7712 10.6752 29.6645 10.7821C29.5578 10.889 29.4311 10.9738 29.2916 11.0317C29.1521 11.0895 29.0026 11.1193 28.8516 11.1193Z" fill="#6AA5FF"/>
<path d="M11.1193 1.14857V3.25071C11.1187 3.55573 10.9973 3.84809 10.7816 4.06377C10.5659 4.27944 10.2736 4.40086 9.96857 4.40143H4.815C4.70929 4.40143 4.60791 4.44342 4.53317 4.51817C4.45842 4.59291 4.41643 4.69429 4.41643 4.8V9.97071C4.41643 10.1217 4.38665 10.2713 4.32879 10.4107C4.27094 10.5502 4.18614 10.677 4.07926 10.7836C3.97238 10.8903 3.84551 10.9749 3.70591 11.0325C3.56631 11.0901 3.41673 11.1196 3.26571 11.1193H1.14857C0.997739 11.1193 0.848383 11.0896 0.709032 11.0319C0.569681 10.9741 0.443064 10.8895 0.336409 10.7829C0.229754 10.6762 0.145151 10.5496 0.0874298 10.4103C0.0297087 10.2709 0 10.1215 0 9.97071L0 0.857143C0 0.629814 0.0903059 0.411797 0.251051 0.251051C0.411797 0.0903059 0.629815 0 0.857143 0L9.96857 0C10.2734 -5.28519e-07 10.5658 0.120941 10.7815 0.336278C10.9972 0.551616 11.1187 0.843754 11.1193 1.14857Z" fill="#6AA5FF"/>
<path d="M1.14857 18.8809H3.25072C3.5559 18.8809 3.84859 19.0021 4.06439 19.2179C4.28019 19.4337 4.40143 19.7264 4.40143 20.0316V25.1744C4.40143 25.2801 4.44342 25.3815 4.51817 25.4563C4.59292 25.531 4.69429 25.573 4.8 25.573H9.97071C10.1215 25.573 10.2709 25.6027 10.4103 25.6604C10.5496 25.7182 10.6762 25.8028 10.7829 25.9094C10.8895 26.0161 10.9741 26.1427 11.0319 26.282C11.0896 26.4214 11.1193 26.5707 11.1193 26.7216V28.8387C11.121 28.9906 11.0925 29.1414 11.0356 29.2822C10.9786 29.423 10.8943 29.5512 10.7875 29.6592C10.6806 29.7672 10.5534 29.853 10.4132 29.9115C10.273 29.97 10.1226 30.0002 9.97071 30.0001H0.857145C0.629816 30.0001 0.411799 29.9098 0.251053 29.7491C0.0903078 29.5884 1.99912e-06 29.3703 1.99912e-06 29.143V20.0316C-0.000279742 19.8806 0.029221 19.731 0.086816 19.5914C0.144411 19.4518 0.228969 19.3249 0.335652 19.218C0.442335 19.1111 0.569048 19.0263 0.708539 18.9685C0.848029 18.9106 0.99756 18.8809 1.14857 18.8809Z" fill="#6AA5FF"/>
<path d="M18.8809 28.8516V26.7495C18.8814 26.4445 19.0028 26.1521 19.2185 25.9364C19.4342 25.7208 19.7266 25.5993 20.0316 25.5988H25.1744C25.2801 25.5988 25.3815 25.5568 25.4563 25.482C25.531 25.4073 25.573 25.3059 25.573 25.2002V20.0295C25.573 19.8785 25.6028 19.7289 25.6606 19.5894C25.7185 19.45 25.8033 19.3232 25.9102 19.2166C26.0171 19.1099 26.1439 19.0253 26.2835 18.9677C26.4231 18.9101 26.5727 18.8806 26.7237 18.8809H28.8409C28.9926 18.8795 29.1431 18.9082 29.2837 18.9652C29.4243 19.0223 29.5522 19.1067 29.66 19.2135C29.7678 19.3203 29.8533 19.4474 29.9117 19.5875C29.9701 19.7275 30.0002 19.8777 30.0001 20.0295V29.1431C30.0001 29.3704 29.9098 29.5884 29.7491 29.7491C29.5884 29.9099 29.3703 30.0002 29.143 30.0002H20.0316C19.7268 30.0002 19.4344 29.8793 19.2187 29.6639C19.0029 29.4486 18.8814 29.1564 18.8809 28.8516Z" fill="#6AA5FF"/>
</g>
<defs>
<clipPath id="clip0_429_6810">
<rect width="30" height="30" fill="white"/>
</clipPath>
</defs>
</svg>
