<svg width="30" height="30" viewBox="0 0 30 30" fill="none" xmlns="http://www.w3.org/2000/svg">
<g clip-path="url(#clip0_429_6803)">
<path d="M12.4941 17.0741V8.56054L10.9448 10.097C10.7121 10.3291 10.436 10.5132 10.1321 10.6386C9.82826 10.764 9.50268 10.8284 9.17396 10.828C8.84524 10.8276 8.51982 10.7625 8.21627 10.6363C7.91273 10.5101 7.637 10.3254 7.40485 10.0927C7.17269 9.85997 6.98864 9.5838 6.86321 9.27995C6.73778 8.9761 6.67343 8.65052 6.67383 8.3218C6.67423 7.99308 6.73937 7.66766 6.86553 7.36411C6.99169 7.06057 7.17641 6.78484 7.40913 6.55268L13.2548 0.730539C13.4892 0.496574 13.7676 0.311476 14.074 0.18598C14.3805 0.0604858 14.7087 -0.00290871 15.0399 -0.000516891C15.371 0.00187492 15.6983 0.0700035 16.0029 0.199913C16.3075 0.329824 16.5832 0.51893 16.8141 0.756256L22.6148 6.73483C22.8445 6.97008 23.0255 7.24826 23.1476 7.55348C23.2697 7.8587 23.3306 8.18498 23.3266 8.5137C23.3226 8.84242 23.2539 9.16714 23.1244 9.46932C22.995 9.77149 22.8072 10.0452 22.572 10.2748C22.3367 10.5045 22.0586 10.6855 21.7533 10.8076C21.4481 10.9297 21.1218 10.9905 20.7931 10.9866C20.4644 10.9826 20.1397 10.9139 19.8375 10.7844C19.5353 10.6549 19.2616 10.4672 19.032 10.232L17.502 8.62697V17.0741C17.4829 17.7255 17.2108 18.3439 16.7433 18.7979C16.2758 19.2519 15.6497 19.5059 14.9981 19.5059C14.3464 19.5059 13.7203 19.2519 13.2528 18.7979C12.7854 18.3439 12.5132 17.7255 12.4941 17.0741Z" fill="#6AA5FF"/>
<path d="M0.807952 29.1921C0.55138 28.9364 0.347916 28.6325 0.20927 28.2978C0.0706247 27.9632 -0.000464313 27.6044 9.49344e-05 27.2421V20.3314C-0.0101797 19.9629 0.0535261 19.5961 0.187447 19.2527C0.321367 18.9092 0.522784 18.5961 0.779791 18.3318C1.0368 18.0676 1.34418 17.8575 1.68376 17.714C2.02335 17.5706 2.38824 17.4967 2.75688 17.4967C3.12552 17.4967 3.49041 17.5706 3.83 17.714C4.16958 17.8575 4.47696 18.0676 4.73397 18.3318C4.99098 18.5961 5.19239 18.9092 5.32631 19.2527C5.46024 19.5961 5.52394 19.9629 5.51367 20.3314V24.4864H24.4844V20.3314C24.4844 19.6 24.7749 18.8985 25.2921 18.3813C25.8093 17.8641 26.5108 17.5736 27.2422 17.5736C27.9737 17.5736 28.6751 17.8641 29.1923 18.3813C29.7095 18.8985 30.0001 19.6 30.0001 20.3314V27.24C30.0004 27.6023 29.9293 27.9612 29.7908 28.296C29.6523 28.6309 29.4492 28.9352 29.1931 29.1915C28.937 29.4478 28.6329 29.6511 28.2981 29.7899C27.9634 29.9286 27.6046 30 27.2422 30H2.75795C2.39571 30.0006 2.03693 29.9295 1.70227 29.7908C1.36761 29.6522 1.06367 29.4487 0.807952 29.1921Z" fill="#6AA5FF"/>
</g>
<defs>
<clipPath id="clip0_429_6803">
<rect width="30" height="30" fill="white" transform="matrix(1 0 0 -1 0 30)"/>
</clipPath>
</defs>
</svg>
