<svg width="30" height="30" viewBox="0 0 30 30" fill="none" xmlns="http://www.w3.org/2000/svg">
<path d="M27 9V23.1125C27 23.3479 26.9065 23.5736 26.7401 23.7401C26.5736 23.9065 26.3479 24 26.1125 24H4C3.73478 24 3.48043 23.8946 3.29289 23.7071C3.10536 23.5196 3 23.2652 3 23V6C3 5.73478 3.10536 5.48043 3.29289 5.29289C3.48043 5.10536 3.73478 5 4 5H10.6625C10.8787 5.00089 11.089 5.07098 11.2625 5.2L14.7375 7.8C14.911 7.92902 15.1213 7.99911 15.3375 8H26C26.2652 8 26.5196 8.10536 26.7071 8.29289C26.8946 8.48043 27 8.73478 27 9Z" stroke="#8E90A6" stroke-width="2" stroke-linecap="round" stroke-linejoin="round"/>
</svg>
