<svg width="31" height="31" viewBox="0 0 31 31" fill="none" xmlns="http://www.w3.org/2000/svg">
<path d="M15.8491 22.6772L13.8777 24.6487C12.8991 25.5309 11.6193 26.004 10.3021 25.9702C8.98499 25.9365 7.73104 25.3985 6.79896 24.4672C5.86689 23.536 5.32778 22.2825 5.29285 20.9654C5.25793 19.6483 5.72984 18.368 6.61126 17.3887L8.58268 15.4172C8.98733 15.0132 9.21488 14.4649 9.21528 13.893C9.21569 13.3212 8.9889 12.7726 8.58483 12.368C8.18075 11.9633 7.63248 11.7358 7.06063 11.7354C6.48878 11.735 5.94019 11.9617 5.53554 12.3658L3.56626 14.3372C1.79508 16.1084 0.800049 18.5106 0.800049 21.0155C0.800049 23.5203 1.79508 25.9225 3.56626 27.6937C5.33743 29.4648 7.73965 30.4599 10.2445 30.4599C12.7493 30.4599 15.1515 29.4648 16.9227 27.6937L18.8941 25.7244C19.2982 25.3206 19.5253 24.7728 19.5255 24.2016C19.5257 23.6303 19.299 23.0824 18.8952 22.6783C18.4914 22.2742 17.9436 22.0471 17.3724 22.0469C16.8011 22.0467 16.2532 22.2734 15.8491 22.6772Z" fill="#8E90A6"/>
<path d="M17.3234 10.8914L11.2312 16.9835C10.8274 17.3873 10.6006 17.935 10.6006 18.506C10.6006 19.0771 10.8274 19.6247 11.2312 20.0285C11.635 20.4323 12.1827 20.6592 12.7537 20.6592C13.3248 20.6592 13.8724 20.4323 14.2762 20.0285L20.3684 13.9364C20.7722 13.5326 20.999 12.9849 20.999 12.4139C20.999 11.8428 20.7722 11.2952 20.3684 10.8914C19.9646 10.4876 19.4169 10.2607 18.8459 10.2607C18.2748 10.2607 17.7272 10.4876 17.3234 10.8914Z" fill="#8E90A6"/>
<path d="M28.0335 3.22652C27.1565 2.34942 26.1154 1.65366 24.9696 1.17897C23.8237 0.704282 22.5955 0.459961 21.3553 0.459961C20.115 0.459961 18.8868 0.704282 17.741 1.17897C16.5951 1.65366 15.554 2.34942 14.677 3.22652L12.7056 5.19581C12.3015 5.5996 12.0744 6.14737 12.0742 6.71862C12.074 7.28987 12.3008 7.8378 12.7045 8.24188C13.1083 8.64595 13.6561 8.87307 14.2274 8.87327C14.7986 8.87347 15.3465 8.64674 15.7506 8.24295L17.722 6.27152C18.7006 5.38924 19.9805 4.91619 21.2976 4.94995C22.6147 4.98371 23.8687 5.52171 24.8008 6.45296C25.7328 7.38421 26.272 8.63768 26.3069 9.95479C26.3418 11.2719 25.8699 12.5522 24.9885 13.5315L23.017 15.5029C22.6124 15.907 22.3848 16.4553 22.3844 17.0271C22.384 17.599 22.6108 18.1476 23.0149 18.5522C23.419 18.9569 23.9672 19.1844 24.5391 19.1848C25.111 19.1852 25.6595 18.9585 26.0642 18.5544L28.0335 16.5829C28.9106 15.706 29.6063 14.6649 30.081 13.519C30.5557 12.3732 30.8 11.145 30.8 9.90473C30.8 8.66444 30.5557 7.4363 30.081 6.29044C29.6063 5.14459 28.9106 4.10346 28.0335 3.22652Z" fill="#8E90A6"/>
</svg>
