<svg width="54" height="54" viewBox="0 0 54 54" fill="none" xmlns="http://www.w3.org/2000/svg">
<circle cx="27" cy="27" r="27" fill="#0063F7"/>
<path fill-rule="evenodd" clip-rule="evenodd" d="M34.3855 12.7505L25.8778 21.2515L17.37 12.7437C16.9217 12.2769 16.3848 11.9043 15.7907 11.6477C15.1966 11.391 14.5573 11.2556 13.9101 11.2493C13.263 11.2429 12.6211 11.3658 12.0221 11.6108C11.4231 11.8557 10.879 12.2178 10.4217 12.6758C9.96441 13.1337 9.60314 13.6783 9.35907 14.2777C9.115 14.8771 8.99303 15.5191 9.00031 16.1663C9.00759 16.8134 9.14397 17.4526 9.40147 18.0463C9.65896 18.64 10.0324 19.1764 10.4999 19.6239L19.0043 28.1317L10.5066 36.6294C9.61816 37.5473 9.12604 38.7776 9.13631 40.055C9.14659 41.3324 9.65843 42.5546 10.5615 43.4581C11.4646 44.3616 12.6865 44.874 13.9639 44.8849C15.2413 44.8958 16.4718 44.4043 17.3902 43.5163L25.8778 35.0018L34.3788 43.5063C34.8274 43.9722 35.3644 44.344 35.9583 44.5999C36.5523 44.8559 37.1913 44.9909 37.838 44.997C38.4847 45.0031 39.1262 44.8803 39.7249 44.6356C40.3236 44.3909 40.8675 44.0294 41.3248 43.572C41.7821 43.1147 42.1437 42.5708 42.3884 41.9721C42.633 41.3734 42.7559 40.732 42.7498 40.0852C42.7437 39.4385 42.6087 38.7995 42.3527 38.2055C42.0967 37.6116 41.7249 37.0746 41.259 36.626L32.7714 28.1351L41.2691 19.6374C42.1575 18.7195 42.6497 17.4892 42.6394 16.2118C42.6291 14.9344 42.1173 13.7122 41.2142 12.8087C40.3111 11.9052 39.0892 11.3928 37.8118 11.3819C36.5344 11.371 35.3039 11.8625 34.3855 12.7505V12.7505Z" fill="#F7F5FF"/>
</svg>
