<svg width="10" height="11" viewBox="0 0 10 11" fill="none" xmlns="http://www.w3.org/2000/svg">
<g clip-path="url(#clip0_748_1618)">
<path fill-rule="evenodd" clip-rule="evenodd" d="M2.18761 1.54747C2.18517 1.82235 2.29686 2.08784 2.50014 2.29037L5.82232 5.50056L2.50405 8.71074C2.3005 8.91268 2.1875 9.17724 2.1875 9.45185C2.1875 9.72646 2.3005 9.99103 2.50405 10.193C2.6014 10.2901 2.71977 10.3676 2.85166 10.4207C2.98354 10.4737 3.12605 10.5011 3.27013 10.5011C3.41422 10.5011 3.55672 10.4737 3.68861 10.4207C3.82049 10.3676 3.93887 10.2901 4.03622 10.193L8.12019 6.24131C8.32459 6.04019 8.4382 5.77581 8.4382 5.50127C8.4382 5.22673 8.32459 4.96235 8.12019 4.76123L4.03622 0.808145C3.93887 0.711033 3.82049 0.63349 3.68861 0.580442C3.55672 0.527394 3.41422 0.5 3.27013 0.5C3.12605 0.5 2.98354 0.527394 2.85166 0.580442C2.71977 0.63349 2.6014 0.711033 2.50405 0.808145C2.29959 1.00885 2.18644 1.27321 2.18761 1.54747Z" fill="white"/>
</g>
<defs>
<clipPath id="clip0_748_1618">
<rect width="10" height="10" fill="white" transform="translate(0 0.5)"/>
</clipPath>
</defs>
</svg>
