<svg width="30" height="30" viewBox="0 0 30 30" fill="none" xmlns="http://www.w3.org/2000/svg">
<path d="M14.966 30.0017H3.3346C2.89475 30.0069 2.45831 29.924 2.05101 29.7579C1.64371 29.5918 1.27379 29.3458 0.963049 29.0344C0.652308 28.7231 0.407037 28.3527 0.241692 27.9451C0.0763466 27.5375 -0.00572635 27.1009 0.000310396 26.661C0.000310396 18.8882 0.000310396 11.1125 0.000310396 3.33388C-0.00366553 2.89663 0.0792387 2.46295 0.244212 2.058C0.409185 1.65306 0.652941 1.2849 0.961335 0.974916C1.26973 0.664927 1.63662 0.419275 2.04071 0.252216C2.4448 0.085156 2.87805 1.60094e-05 3.31531 0.00173661C9.88674 0.00173661 16.4525 0.00173661 23.0125 0.00173661C23.1157 -0.0054989 23.2192 0.00993322 23.3158 0.0469506C23.4124 0.083968 23.4998 0.141674 23.5717 0.216022C25.6396 2.29674 27.7182 4.36459 29.786 6.44745C29.9156 6.58759 29.9914 6.76897 30.0003 6.95959C30.0003 13.5496 30.0003 20.1382 30.0003 26.7253C29.9903 27.5901 29.6428 28.4167 29.0319 29.0288C28.421 29.6409 27.595 29.9901 26.7303 30.0017H14.966ZM18.9453 5.29031H6.51674C5.95979 5.29031 5.42564 5.51156 5.03182 5.90538C4.63799 6.29921 4.41674 6.83335 4.41674 7.39031V9.81602C4.41674 10.373 4.63799 10.9071 5.03182 11.3009C5.42564 11.6948 5.95979 11.916 6.51674 11.916H18.9453C19.2211 11.916 19.4942 11.8617 19.7489 11.7562C20.0037 11.6506 20.2352 11.496 20.4302 11.3009C20.6252 11.1059 20.7799 10.8744 20.8855 10.6197C20.991 10.3649 21.0453 10.0918 21.0453 9.81602V7.39031C21.0453 7.11453 20.991 6.84146 20.8855 6.58667C20.7799 6.33189 20.6252 6.10039 20.4302 5.90538C20.2352 5.71038 20.0037 5.5557 19.7489 5.45016C19.4942 5.34463 19.2211 5.29031 18.9453 5.29031ZM15.0003 24.8975C15.849 24.8973 16.6787 24.6465 17.3853 24.1765C18.0918 23.7064 18.6438 23.0381 18.9719 22.2554C19.3 21.4728 19.3896 20.6106 19.2294 19.7772C19.0692 18.9438 18.6663 18.1763 18.0714 17.5711C17.4766 16.9659 16.7161 16.5498 15.8856 16.3753C15.0551 16.2007 14.1916 16.2754 13.4033 16.5899C12.6151 16.9044 11.9374 17.4448 11.4552 18.1432C10.9731 18.8415 10.7079 19.6668 10.6932 20.5153C10.6835 21.0871 10.7878 21.6552 10.9998 22.1863C11.2119 22.7174 11.5276 23.201 11.9285 23.6089C12.3294 24.0168 12.8075 24.3408 13.3349 24.562C13.8623 24.7832 14.4284 24.8973 15.0003 24.8975Z" fill="#6AA5FF"/>
</svg>
