<svg width="30" height="30" viewBox="0 0 30 30" fill="none" xmlns="http://www.w3.org/2000/svg">
<g clip-path="url(#clip0_429_5872)">
<path fill-rule="evenodd" clip-rule="evenodd" d="M20.4193 3.59374C18.8517 2.02451 16.8784 0.922341 14.7201 0.410517C12.5619 -0.101307 10.3038 -0.00260379 8.19846 0.695588C6.09311 1.39378 4.22351 2.66393 2.79878 4.36396C1.37405 6.064 0.450375 8.12688 0.131062 10.3219C-0.188251 12.5169 0.109393 14.7574 0.990704 16.7929C1.87201 18.8284 3.30224 20.5786 5.1214 21.8477C6.94056 23.1168 9.07693 23.8548 11.2915 23.9791C13.5062 24.1034 15.7117 23.6092 17.6615 22.5516L24.825 29.3573C25.1987 29.7118 25.6959 29.9066 26.2109 29.9002C26.7259 29.8938 27.2182 29.6867 27.5829 29.323L29.4215 27.4845C29.7894 27.1143 29.996 26.6135 29.996 26.0916C29.996 25.5697 29.7894 25.0689 29.4215 24.6987L22.47 17.7345C23.6977 15.4712 24.1613 12.8719 23.7918 10.3237C23.4223 7.77558 22.2393 5.41502 20.4193 3.59374ZM16.8686 16.9416C15.8999 17.9108 14.6654 18.571 13.3215 18.8386C11.9775 19.1062 10.5844 18.9692 9.31826 18.4449C8.05215 17.9207 6.96996 17.0327 6.20857 15.8934C5.44717 14.754 5.04077 13.4145 5.04077 12.0441C5.04077 10.6738 5.44717 9.33418 6.20857 8.19483C6.96996 7.05547 8.05215 6.16751 9.31826 5.64326C10.5844 5.11901 11.9775 4.98202 13.3215 5.24962C14.6654 5.51721 15.8999 6.17737 16.8686 7.1466C18.1639 8.44739 18.8912 10.2084 18.8912 12.0441C18.8912 13.8798 18.1639 15.6408 16.8686 16.9416Z" fill="#8E90A6"/>
</g>
<defs>
<clipPath id="clip0_429_5872">
<rect width="30" height="30" fill="white"/>
</clipPath>
</defs>
</svg>
