<svg width="31" height="31" viewBox="0 0 31 31" fill="none" xmlns="http://www.w3.org/2000/svg">
<g clip-path="url(#clip0_429_5888)">
<path fill-rule="evenodd" clip-rule="evenodd" d="M4.79907 11.2172C4.97781 11.6687 5.25745 12.0733 5.6166 12.4002C5.97575 12.727 6.4049 12.9674 6.87121 13.1029L17.1269 15.46L6.96764 17.6865C6.49057 17.817 6.05039 18.0567 5.68185 18.3865C5.3133 18.7164 5.02649 19.1274 4.84407 19.5872L2.4055 28.1029C2.27207 28.4333 2.2449 28.797 2.32777 29.1435C2.41064 29.4901 2.59942 29.8022 2.86787 30.0364C3.13632 30.2707 3.4711 30.4155 3.82565 30.4507C4.18021 30.4859 4.53693 30.4098 4.84621 30.2329L28.4434 16.96C28.7113 16.8118 28.9346 16.5945 29.0902 16.3307C29.2457 16.0669 29.3277 15.7663 29.3277 15.46C29.3277 15.1538 29.2457 14.8532 29.0902 14.5894C28.9346 14.3256 28.7113 14.1083 28.4434 13.96L4.84621 0.687172C4.53693 0.510265 4.18021 0.434122 3.82565 0.469329C3.4711 0.504536 3.13632 0.649344 2.86787 0.883619C2.59942 1.11789 2.41064 1.42999 2.32777 1.77653C2.2449 2.12306 2.27207 2.4868 2.4055 2.81717L4.79907 11.2172Z" fill="#8E90A6"/>
</g>
<defs>
<clipPath id="clip0_429_5888">
<rect width="30" height="30" fill="white" transform="translate(0.800049 0.459961)"/>
</clipPath>
</defs>
</svg>
