<svg width="74" height="74" viewBox="0 0 74 74" fill="none" xmlns="http://www.w3.org/2000/svg">
<rect width="74" height="74" rx="37" transform="matrix(-1 0 0 1 74 0)" fill="#7EB1FF"/>
<g clip-path="url(#clip0_429_6801)">
<path fill-rule="evenodd" clip-rule="evenodd" d="M46.7115 23.3507C46.7199 24.2999 46.3343 25.2167 45.6323 25.9162L34.1597 37.002L45.6188 48.0878C46.3217 48.7852 46.7119 49.6988 46.7119 50.6471C46.7119 51.5955 46.3217 52.5091 45.6188 53.2064C45.2826 53.5418 44.8738 53.8096 44.4184 53.9928C43.9629 54.176 43.4708 54.2706 42.9732 54.2706C42.4757 54.2706 41.9835 54.176 41.5281 53.9928C41.0727 53.8096 40.6639 53.5418 40.3277 53.2064L26.2244 39.5601C25.5185 38.8655 25.1262 37.9525 25.1262 37.0045C25.1262 36.0564 25.5185 35.1434 26.2244 34.4488L40.3277 20.7975C40.6639 20.4622 41.0727 20.1944 41.5281 20.0112C41.9835 19.828 42.4757 19.7334 42.9732 19.7334C43.4708 19.7334 43.9629 19.828 44.4184 20.0112C44.8738 20.1944 45.2826 20.4622 45.6188 20.7975C46.3248 21.4906 46.7156 22.4036 46.7115 23.3507Z" fill="white"/>
</g>
<defs>
<clipPath id="clip0_429_6801">
<rect width="34.5333" height="34.5333" fill="white" transform="matrix(-1 0 0 1 54.2666 19.7334)"/>
</clipPath>
</defs>
</svg>
