<svg width="43" height="43" viewBox="0 0 43 43" fill="none" xmlns="http://www.w3.org/2000/svg">
<path d="M38.5 20.5C38.5 30.165 30.665 38 21 38C11.335 38 3.50003 30.165 3.50003 20.5C3.50003 10.835 11.335 3 21 3C30.665 3 38.5 10.835 38.5 20.5Z" fill="#0063F7"/>
<path d="M31.8181 27.2857L25.9135 21.3715C25.8403 21.2875 25.8 21.1798 25.8001 21.0684C25.8002 20.9569 25.8407 20.8493 25.914 20.7654L31.6766 15.0123C31.9904 14.7434 32.245 14.4123 32.4243 14.04C32.6036 13.6677 32.7037 13.2623 32.7183 12.8493C32.7329 12.4363 32.6616 12.0248 32.509 11.6408C32.3564 11.2567 32.1258 10.9086 31.8317 10.6182C31.5375 10.3124 31.1847 10.0691 30.7943 9.90277C30.4039 9.73644 29.984 9.65054 29.5597 9.65019C29.1353 9.64985 28.7153 9.73506 28.3246 9.90075C27.934 10.0664 27.5807 10.3092 27.286 10.6145L21.3718 16.5191C21.2878 16.5923 21.1801 16.6326 21.0687 16.6325C20.9572 16.6324 20.8496 16.5919 20.7657 16.5186L15.0126 10.756C14.7541 10.4266 14.4268 10.1576 14.0535 9.96778C13.6803 9.77799 13.2701 9.67201 12.8516 9.65724C12.4331 9.64247 12.0165 9.71926 11.6308 9.88226C11.2451 10.0452 10.8996 10.2905 10.6185 10.6009C10.0344 11.2132 9.70826 12.0268 9.70757 12.873C9.70688 13.7192 10.0317 14.5333 10.6148 15.1466L16.5194 21.0608C16.5926 21.1448 16.6329 21.2525 16.6328 21.3639C16.6327 21.4754 16.5923 21.583 16.5189 21.6669L10.6047 27.5714C10.3166 27.8445 10.0871 28.1733 9.93016 28.5379C9.77322 28.9024 9.69212 29.2951 9.6918 29.692C9.69147 30.0889 9.77193 30.4818 9.92828 30.8466C10.0846 31.2114 10.3136 31.5406 10.6012 31.8141C11.2135 32.3982 12.0271 32.7244 12.8733 32.725C13.7195 32.7257 14.5336 32.4009 15.1469 31.8178L21.0611 25.9132C21.1451 25.84 21.2528 25.7997 21.3642 25.7998C21.4757 25.7999 21.5833 25.8404 21.6672 25.9137L27.5718 31.8279C28.1419 32.3758 28.9017 32.682 29.6924 32.6827C30.4831 32.6833 31.2434 32.3783 31.8144 31.8314C32.1441 31.5517 32.409 31.2036 32.5908 30.8113C32.7727 30.419 32.867 29.9918 32.8674 29.5594C32.8677 29.127 32.7741 28.6997 32.5929 28.3071C32.4117 27.9145 32.1474 27.566 31.8181 27.2857Z" fill="white"/>
</svg>
