<svg width="139" height="68" viewBox="0 0 139 68" fill="none" xmlns="http://www.w3.org/2000/svg">
<g filter="url(#filter0_d_429_5935)">
<path d="M14.3916 8.41016C15.9774 8.41017 17.4278 9.01428 18.5449 10.0137C18.8029 10.2445 19.1297 10.3916 19.4758 10.3916H48.417C53.1267 10.3918 55.5813 15.9984 52.3867 19.459L27.4842 46.4325C26.7388 47.2398 27.3115 48.5479 28.4103 48.5479H53.3841C53.7599 48.5479 54.1112 48.375 54.3756 48.1079C55.5253 46.9467 57.0903 46.2314 58.8154 46.2314C62.3451 46.2316 65.2069 49.2223 65.207 52.9111C65.207 56.6001 62.3452 59.5907 58.8154 59.5908C57.3798 59.5908 56.0558 59.0951 54.9891 58.2597C54.7417 58.0659 54.442 57.9443 54.1278 57.9443H16.4082C11.6984 57.9443 9.24381 52.3376 12.4385 48.877L37.341 21.9034C38.0864 21.0961 37.5137 19.7881 36.4149 19.7881H19.4769C19.1307 19.7881 18.8038 19.9352 18.5458 20.1661C17.4286 21.1657 15.9777 21.7695 14.3916 21.7695C10.8617 21.7695 8 18.7789 8 15.0898C8.00011 11.4008 10.8618 8.41016 14.3916 8.41016Z" fill="url(#paint0_linear_429_5935)"/>
</g>
<g style="mix-blend-mode:darken">
<path d="M14.3916 8.41016C15.9774 8.41017 17.4278 9.01428 18.5449 10.0137C18.8029 10.2445 19.1297 10.3916 19.4758 10.3916H48.417C53.1267 10.3918 55.5813 15.9984 52.3867 19.459L27.4842 46.4325C26.7388 47.2398 27.3115 48.5479 28.4103 48.5479H53.3841C53.7599 48.5479 54.1112 48.375 54.3756 48.1079C55.5253 46.9467 57.0903 46.2314 58.8154 46.2314C62.3451 46.2316 65.2069 49.2223 65.207 52.9111C65.207 56.6001 62.3452 59.5907 58.8154 59.5908C57.3798 59.5908 56.0558 59.0951 54.9891 58.2597C54.7417 58.0659 54.442 57.9443 54.1278 57.9443H16.4082C11.6984 57.9443 9.24381 52.3376 12.4385 48.877L37.341 21.9034C38.0864 21.0961 37.5137 19.7881 36.4149 19.7881H19.4769C19.1307 19.7881 18.8038 19.9352 18.5458 20.1661C17.4286 21.1657 15.9777 21.7695 14.3916 21.7695C10.8617 21.7695 8 18.7789 8 15.0898C8.00011 11.4008 10.8618 8.41016 14.3916 8.41016Z" fill="url(#paint1_linear_429_5935)"/>
</g>
<g filter="url(#filter1_d_429_5935)">
<path d="M121.048 37.2773C121.409 37.2773 121.701 36.9853 121.701 36.6252V19.2054C121.701 18.8453 121.409 18.5533 121.048 18.5533H118.444C118.084 18.5533 117.792 18.8453 117.792 19.2054V36.6252C117.792 36.9853 118.084 37.2773 118.444 37.2773H121.048ZM110.225 45.4285C109.372 45.4285 108.681 44.7375 108.681 43.8851V11.2934C108.681 10.441 109.372 9.75 110.225 9.75H128.721C129.574 9.75 130.265 10.441 130.265 11.2934V43.8851C130.265 44.7375 129.574 45.4285 128.721 45.4285H110.225Z" fill="#6AA5FF"/>
</g>
<g filter="url(#filter2_d_429_5935)">
<path d="M94.9041 58.6572C93.9299 58.6572 93.1402 57.8675 93.1402 56.8934V11.5138C93.1402 10.5397 93.9299 9.75 94.9041 9.75H103.766C104.74 9.75 105.53 10.5397 105.53 11.5138V46.4972C105.53 47.4714 106.32 48.2611 107.294 48.2611H108.939H129.064C130.038 48.2611 130.828 49.0508 130.828 50.0249V56.8934C130.828 57.8675 130.038 58.6572 129.064 58.6572H94.9041Z" fill="#6AA5FF"/>
</g>
<g filter="url(#filter3_d_429_5935)">
<path d="M71.7091 58.6221C70.2899 58.6221 69.1393 57.4716 69.1393 56.0524V50.2573C69.1393 46.1518 65.8112 42.8237 61.7058 42.8237C60.502 42.8237 59.5262 41.8478 59.5262 40.6441V12.2846C59.5262 10.8653 60.6767 9.71484 62.0959 9.71484H68.6942C70.1134 9.71484 71.2639 10.8653 71.2639 12.2846V31.8154C71.2639 32.3556 71.7019 32.7935 72.2421 32.7935H77.2809C77.8211 32.7935 78.259 32.3556 78.259 31.8154V12.2846C78.259 10.8653 79.4095 9.71484 80.8287 9.71484H87.101C88.5202 9.71484 89.6707 10.8653 89.6707 12.2846V40.6419C89.6707 41.8469 88.6939 42.8237 87.489 42.8237C83.3794 42.8237 80.0479 46.1552 80.0479 50.2647V56.0524C80.0479 57.4716 78.8974 58.6221 77.4782 58.6221H71.7091Z" fill="#6AA5FF"/>
</g>
<defs>
<filter id="filter0_d_429_5935" x="0.174841" y="0.584998" width="72.8573" height="66.831" filterUnits="userSpaceOnUse" color-interpolation-filters="sRGB">
<feFlood flood-opacity="0" result="BackgroundImageFix"/>
<feColorMatrix in="SourceAlpha" type="matrix" values="0 0 0 0 0 0 0 0 0 0 0 0 0 0 0 0 0 0 127 0" result="hardAlpha"/>
<feOffset/>
<feGaussianBlur stdDeviation="3.91258"/>
<feComposite in2="hardAlpha" operator="out"/>
<feColorMatrix type="matrix" values="0 0 0 0 1 0 0 0 0 1 0 0 0 0 1 0 0 0 0.39 0"/>
<feBlend mode="normal" in2="BackgroundImageFix" result="effect1_dropShadow_429_5935"/>
<feBlend mode="normal" in="SourceGraphic" in2="effect1_dropShadow_429_5935" result="shape"/>
</filter>
<filter id="filter1_d_429_5935" x="100.856" y="1.92484" width="37.2336" height="51.329" filterUnits="userSpaceOnUse" color-interpolation-filters="sRGB">
<feFlood flood-opacity="0" result="BackgroundImageFix"/>
<feColorMatrix in="SourceAlpha" type="matrix" values="0 0 0 0 0 0 0 0 0 0 0 0 0 0 0 0 0 0 127 0" result="hardAlpha"/>
<feOffset/>
<feGaussianBlur stdDeviation="3.91258"/>
<feComposite in2="hardAlpha" operator="out"/>
<feColorMatrix type="matrix" values="0 0 0 0 1 0 0 0 0 1 0 0 0 0 1 0 0 0 0.39 0"/>
<feBlend mode="normal" in2="BackgroundImageFix" result="effect1_dropShadow_429_5935"/>
<feBlend mode="normal" in="SourceGraphic" in2="effect1_dropShadow_429_5935" result="shape"/>
</filter>
<filter id="filter2_d_429_5935" x="85.3151" y="1.92484" width="53.3378" height="64.5575" filterUnits="userSpaceOnUse" color-interpolation-filters="sRGB">
<feFlood flood-opacity="0" result="BackgroundImageFix"/>
<feColorMatrix in="SourceAlpha" type="matrix" values="0 0 0 0 0 0 0 0 0 0 0 0 0 0 0 0 0 0 127 0" result="hardAlpha"/>
<feOffset/>
<feGaussianBlur stdDeviation="3.91258"/>
<feComposite in2="hardAlpha" operator="out"/>
<feColorMatrix type="matrix" values="0 0 0 0 1 0 0 0 0 1 0 0 0 0 1 0 0 0 0.39 0"/>
<feBlend mode="normal" in2="BackgroundImageFix" result="effect1_dropShadow_429_5935"/>
<feBlend mode="normal" in="SourceGraphic" in2="effect1_dropShadow_429_5935" result="shape"/>
</filter>
<filter id="filter3_d_429_5935" x="51.701" y="1.88969" width="45.7948" height="64.5575" filterUnits="userSpaceOnUse" color-interpolation-filters="sRGB">
<feFlood flood-opacity="0" result="BackgroundImageFix"/>
<feColorMatrix in="SourceAlpha" type="matrix" values="0 0 0 0 0 0 0 0 0 0 0 0 0 0 0 0 0 0 127 0" result="hardAlpha"/>
<feOffset/>
<feGaussianBlur stdDeviation="3.91258"/>
<feComposite in2="hardAlpha" operator="out"/>
<feColorMatrix type="matrix" values="0 0 0 0 1 0 0 0 0 1 0 0 0 0 1 0 0 0 0.39 0"/>
<feBlend mode="normal" in2="BackgroundImageFix" result="effect1_dropShadow_429_5935"/>
<feBlend mode="normal" in="SourceGraphic" in2="effect1_dropShadow_429_5935" result="shape"/>
</filter>
<linearGradient id="paint0_linear_429_5935" x1="-10.4784" y1="24.942" x2="20.9492" y2="79.3183" gradientUnits="userSpaceOnUse">
<stop stop-color="#5B8DEF"/>
<stop offset="1" stop-color="#0063F7"/>
</linearGradient>
<linearGradient id="paint1_linear_429_5935" x1="-10.4784" y1="24.942" x2="20.9492" y2="79.3183" gradientUnits="userSpaceOnUse">
<stop stop-color="#5B8DEF"/>
<stop offset="1" stop-color="#0063F7"/>
</linearGradient>
</defs>
</svg>
